# xmcd CD database file
#
# Track frame offsets:
#	150
#	10105
#	21144
#	30486
#	42796
#	58144
#	69631
#	84794
#	100868
#	113052
#	127249
#	137409
#
# Disc length: 2077 seconds
#
# Revision: 0
# Processed by: cddbd v1.5.2PL0 Copyright (c) Steve Scherf et al.
# Submitted via: CDex 1.51
#
DISCID=93081b0c
DTITLE=Irmãs Galvão - Encontros Sertanejos vol.6
DYEAR=1900
DGENRE=Country
TTITLE0=Juriti Mineira
TTITLE1=Alvorada de Coxim
TTITLE2=Rincão Matogrossense
TTITLE3=Desventura
TTITLE4=Voltei Amor
TTITLE5=Deus Sabe o Que Faz
TTITLE6=Não Me Abandones
TTITLE7=Ternura, Amor e Paz
TTITLE8=Luar Aquidauana
TTITLE9=Pecado Loiro
TTITLE10=O Que é Amor
TTITLE11=Amor e Felicidade
EXTD=
EXTT0=
EXTT1=
EXTT2=
EXTT3=
EXTT4=
EXTT5=
EXTT6=
EXTT7=
EXTT8=
EXTT9=
EXTT10=
EXTT11=
PLAYORDER=
